<?xml version="1.0" encoding="UTF-8"?>
<svg xmlns="http://www.w3.org/2000/svg" version="1.1" viewBox="0 0 370 250">
  <defs>
    <style>
      .cls-1 {
        fill: #c9c9c9;
      }

      .cls-2 {
        fill: #212249;
      }
    </style>
  </defs>
  <!-- Generator: Adobe Illustrator 28.6.0, SVG Export Plug-In . SVG Version: 1.2.0 Build 709)  -->
  <g>
    <g id="_レイヤー_1" data-name="レイヤー_1">
      <path class="cls-1" d="M172.3,61.8c.5,1.8.9,3.4,1.4,5,.6,1.9.4,3.8,0,5.7-.4,2.1-1.5,4-2.5,5.8-.6,1.1-1.4,2.1-2.3,2.8-2.5,2-5.3,2.4-8.3,1.3-2.2-.8-3.1-2.8-3.5-5-.3-1.4-.1-2.8,0-4.2.2-2.2.9-4.2,2-6.2,1.3-2.4,3.1-4.3,5.5-5.5.9-.5,1.7-1,2.8-1.5-1.1-1.2-2.2-2.2-3.4-3.1-.5-.4-1.1-.8-1.6-1.1-1.2-.8-2.5-1.3-3.9-1.5-2.4-.4-4.8-.9-7.2-1.1-3.2-.2-6.2.5-8.9,2.3-.4.3-.9.6-1.3.8-2.5,1.7-4.3,3.9-5.4,6.7-1.2,3.2-.7,6.1,1.5,8.6,1.7,1.9,4,2.8,6.7,2.6.8,0,1.7-.3,2.5-.5.3,0,.7-.5.7-.8,0-.3-.4-.6-.6-.8-1.8-1-2.2-1.8-1.7-3.5.5-1.6,1.9-2.5,3.6-2.3,1.4.2,2.3.6,2.9,2.1,1.1,3.1-.4,6.1-3.6,7.5-3.1,1.3-6.2,1-9.2-.2-.6-.3-1.2-.7-1.7-1.2-2.4-2.2-4.2-4.8-4.2-8.2,0-2.1.5-4.1,1.6-5.9,1.8-3,4.1-5.6,7.2-7.3.8-.5,1.7-.9,2.6-1.2,2.9-1.2,5.8-1.5,8.9-1.3,3.2.2,6.2.9,9.1,2,1.2.4,2.3,1.1,3.3,1.9,1.6,1.3,3.2,2.7,4.7,4.1.7.6,1.4.9,2.3.7,2.9-.6,5.8-.5,8.6,0,2.2.3,4.4,1,6.6,1.6.6.2,1.2.5,1.9.6,2.8.6,5.2,2,7.6,3.4,2.9,1.7,5.5,3.7,8.1,5.7,3.4,2.6,6.5,5.5,8.8,9.1,1.6,2.5,3.6,4.7,5.3,7.1.5.7,1.2,1.2,1.7,1.9,1.4,1.5,2.8,3.2,4.4,4.6,1.9,1.6,3.9,3.2,6.3,4,1.8.7,3.8,1,5.8,1.4,1,.2,2,.3,3,.5,2.3.4,4.4,0,6.6-.6,1.4-.4,2.8-.9,4.2-1.3,1.8-.5,3.2-1.6,4.7-2.6,2.8-1.8,4.1-4.6,5.3-7.6.3-.8.6-1.7,1-2.5,1.2-3.1,1.8-6.3,1.2-9.6-.2-1.2-.6-2.5-1.3-3.6-.6-.9-1-1.8-1.5-2.7-1-1.6-2.4-2.9-4-3.9-1.4-.9-2.7-1.9-4.3-2.3-2.1-.5-4.2-1.1-6.4-1.4-3.6-.5-6.8.6-9.2,3.3-1.8,2-3,4.4-3.1,7.2,0,1.4.3,2.5,1,3.6.8,1.2,2,1.9,3.4,2.2,1,.2,1.3,0,1.6-.9.6-1.7,3.1-2.4,4.4-1.1.3.3.4.8.5,1.3.2,1.4-.7,2.8-2,3.2-4.6,1.2-9.5-.9-10.9-5.8-.2-.8-.3-1.8-.3-2.6.4-4,1.9-7.6,5.1-10.1,2.5-2,5.4-3,8.7-2.8,2.6.2,5.2.7,7.7,1.5,3.4,1.1,6.7,2.7,9,5.6,1.5,1.9,2.6,4.1,3.5,6.3,1,2.6,1.3,5.3.9,8-.5,3.4-1.7,6.5-3.2,9.9.6-.2,1-.3,1.3-.6,2.7-2,5.8-3.2,8.8-4.4,4.7-1.9,9.5-3.6,14.3-5.2,3.2-1.1,6.5-1.9,9.8-2.1,2.5-.2,5.1,0,7.7,0,1.1,0,2.2.1,3.2.3,1.8.4,3.5.8,5.2,1.3,1.4.4,2.8.8,4.1,1.4,1.5.7,2.7,1.8,3.7,3.1.5.7,1.1,1.2,1.6,1.9.5.7.9,1.4,1.2,2.1.3.6.4,1.2.5,1.9.2,1.7.4,3.5.3,5.2,0,1.5-.4,2.9-.7,4.3-.5,2.2-1.6,4.1-3.1,5.8-.7.8-1.5,1.4-2.3,2-1.4,1.1-3.1,1.5-4.8,1.9-.9.2-2,.2-2.9.2-4.5,0-8.7-1.2-12.2-4.1-2.4-2-3.7-4.7-3-8,.9-3.9,5.2-5.9,8.7-3.9.8.4,1.3,1.1,1.1,2.1,0,.2,0,.5-.1.7-.1,1-.5,1.9-1.5,2.2-1.2.4-2.3,0-3.2-.7-.2-.2-.4-.5-.5-.8-.1-.5-.4-.9-.8-.8-.4,0-.8.3-1,.6-.9,1.2-.9,3.4.2,4.8,1.5,1.9,3.3,3.5,5.7,4.3,2.1.7,4.1,1.3,6.4,1.2,2.3-.2,4.5-.6,6.5-1.8,2.6-1.6,3.9-4.1,4.8-6.9.9-3,.8-6-.3-8.9-1.2-3.4-3.7-5.7-7-7-3.8-1.5-7.9-2.1-12-2.3-1.7,0-3.4.2-5.1.3-3.4.2-6.6,1.1-9.8,2.2-3.5,1.2-7,2.5-10.5,3.8-2,.8-3.9,1.6-5.9,2.5-2.4,1-4.5,2.3-6.6,3.8-2.3,1.6-4.4,3.3-6.8,4.8-2.3,1.5-4.8,2.7-7.5,3.3-1.3.3-2.5.8-3.8,1.1-2,.5-3.9.5-5.9.3-1.8-.2-3.7-.5-5.5-.8-2.6-.5-5.1-1.4-7.3-3-1.8-1.3-3.5-2.7-5.3-4.1-.3-.3-.6-.6-.9-.9-1.4-1.6-3-3.1-4.2-4.8-1.8-2.5-3.9-4.8-5.5-7.5-1.1-1.8-2.4-3.3-4.1-4.7-2.1-1.7-4.2-3.5-6.3-5.3-2.4-2-5.1-3.7-7.9-4.9-3-1.3-6-2.6-9.3-3.2-.8-.1-1.7-.4-2.5-.6-3-.9-6-.5-9,0ZM159.4,73.4c-.3,1.4-.1,2.8.2,4.1.7,2.5,1.4,2.8,3.5,3,1.8.2,3.5-.3,4.7-1.8,2-2.4,2.9-5.3,3.7-8.2.5-1.7-.2-3.2-.7-4.7-.2-.8-.5-1.5-.9-2.2-.6-1.1-1.2-1.3-2.4-.8-3.2,1.5-5.9,3.6-7.2,7-.4,1.1-.7,2.4-1,3.5Z"/>
      <g>
        <path class="cls-2" d="M78.7,138.7c-2,0-4.2-.3-6.5-.8-2.3-.5-4.2-1.3-5.8-2.1l-.4-10,4-.3,2.2,6.9c1.1.7,2.3,1.2,3.6,1.6,1.3.4,2.6.5,3.8.5,2.2,0,3.9-.5,5.1-1.4,1.2-1,1.8-2.3,1.8-3.9s-.5-3-1.5-4c-1-1-2.2-1.9-3.8-2.7-1.5-.7-3.2-1.5-4.9-2.2-1.7-.7-3.4-1.5-4.9-2.5s-2.8-2.2-3.8-3.7c-1-1.5-1.5-3.4-1.5-5.7s.7-4.6,2.1-6.4c1.4-1.9,3.3-3.3,5.8-4.3,2.5-1,5.3-1.5,8.6-1.5s2.3,0,3.5.2c1.2.1,2.4.4,3.5.6s2.1.6,3,1l.7,9.8-4,.3-2.1-6.5c-1.5-.8-3.3-1.3-5.3-1.3s-3.8.5-5.1,1.5c-1.3,1-1.9,2.4-1.9,4.2s.5,2.9,1.5,4,2.3,2,3.8,2.7c1.6.8,3.2,1.5,5,2.2,1.8.7,3.4,1.6,5,2.5,1.6,1,2.8,2.2,3.8,3.6,1,1.5,1.5,3.3,1.5,5.5s-.7,4.4-2.1,6.3c-1.4,1.9-3.4,3.3-5.9,4.4s-5.5,1.6-8.8,1.6Z"/>
        <path class="cls-2" d="M123.1,132.7c-.8,1.9-2,3.4-3.8,4.4-1.8,1.1-3.7,1.6-5.7,1.6-3.1,0-5.7-.9-7.7-2.7-2-1.8-3-4.6-3-8.3l.2-16h-4.9v-2l10.9-9h2v9.3c-.1,0-.3,16.9-.3,16.9,0,2.1.5,3.6,1.5,4.6,1,1,2.4,1.4,4.1,1.4s1.8-.2,2.7-.6c.9-.4,1.6-.9,2.3-1.5l1.6,1.9ZM107.4,111.7v-4.1h13.8v4.1h-13.8Z"/>
        <path class="cls-2" d="M157,132.2l4.6,1.1v2.8l-11,2.9-1.6-1v-4.7c0,0-.1,0-.1,0-1.4,2.1-2.8,3.5-4.3,4.3-1.5.8-3.1,1.2-4.7,1.2-3.3,0-6-1-8.1-3.1-2.1-2.1-3.2-5.2-3.2-9.3v-6c0-.9,0-2-.1-3.1,0-1.1-.2-2.2-.2-3.4l-4.8-1v-2.9l11.7-3,1.7,1.2c0,1.4-.2,3-.2,4.9,0,1.9-.1,3.8-.1,5.8v6.5c0,2.6.5,4.4,1.7,5.6,1.2,1.1,2.7,1.7,4.6,1.7s2.1-.3,3.2-.8c1.1-.6,2-1.5,2.8-2.8v-7.5c0-1,0-1.9,0-2.8,0-.9,0-1.7-.1-2.6,0-.8-.2-1.6-.2-2.3l-5.1-1v-2.9l12-3,1.6,1.1c0,1,0,2.1-.1,3.1,0,1,0,2.1,0,3.3,0,1.2,0,2.5,0,3.9v5.4c0,1.6,0,3.1.1,4.6s.2,2.7.3,3.7Z"/>
        <path class="cls-2" d="M189.4,139l-1.6-1v-4.5c0,0-.1,0-.1,0-1.3,2-2.6,3.4-4.1,4.1-1.5.8-3,1.2-4.5,1.2-2.5,0-4.9-.6-7-1.9s-3.8-3-5-5.2c-1.2-2.2-1.9-4.8-1.9-7.8s.5-5,1.4-7.1c.9-2.1,2.2-3.9,3.8-5.3,1.6-1.5,3.4-2.6,5.4-3.3s4-1.2,6-1.2,2.1.1,3.2.3c1.1.2,2,.5,2.7.9,0-.8,0-1.9,0-3.1,0-1.2,0-2.4,0-3.6,0-1.2,0-2.3,0-3.3,0-1,0-1.7-.1-2.2l-5.3-.8v-2.8c-.1,0,12.2-3.2,12.2-3.2l1.7,1.1c-.1,2.9-.3,5.6-.4,8.2,0,2.6-.1,5.2-.1,8.1v16.2c0,2.4,0,4.4.1,5.9s.3,2.7.4,3.5l4.6,1.1v2.8l-11,2.9ZM181.8,132.7c.9,0,1.9-.3,3-.8,1-.5,2-1.4,2.9-2.6v-15.4c-.8-1.1-1.6-1.9-2.7-2.4-1-.5-2.1-.7-3.1-.7-2.4,0-4.4,1-5.9,2.9-1.5,1.9-2.3,4.5-2.3,7.9s.8,6.3,2.4,8.2c1.6,1.9,3.5,2.9,5.8,2.9Z"/>
        <path class="cls-2" d="M217.1,138.4l-12.7-26.8-3.3-1.1.2-3h16.5l.2,3-4.4,1.1,8.4,18.6-4.9,8.2ZM236.1,107.5l.2,3-3.3,1.1-12.2,24.5-5.6,11.7c-1.2,2.4-2.4,4.1-3.6,5-1.2.9-2.6,1.4-4.1,1.4s-2.6-.4-3.5-1.1c-.9-.7-1.3-1.6-1.3-2.6s.4-1.8,1.1-2.6c.7-.8,1.9-1.4,3.4-1.8l7.7-2.2-4.2,3.3,8.3-15.5.8-1.5,8.1-18.6-4.4-1.1.2-3h12.3Z"/>
      </g>
      <text/>
      <g>
        <path class="cls-2" d="M123.9,204.4l-.2-3.2,3.6-1.1,14.3-35.2,5.3-3,15.9,38.2,3.6,1.1-.2,3.2h-17.2l-.2-3.2,4.4-1.1-3.9-9.6-.8-2.3-7.2-17.4h1.9c0,0-6.3,17.3-6.3,17.3l-.7,2.1-3.4,9.9,4.4,1.1-.2,3.2h-12.9ZM134.6,192.1v-4.4c.9,0,2,.1,3.3.2,1.3,0,2.9.1,5,.1s3.6,0,5-.1,2.4-.1,3.3-.2v4.4c-1.1,0-2.4,0-3.7,0-1.3,0-2.8,0-4.5,0s-3.2,0-4.5,0c-1.3,0-2.6,0-3.7.1Z"/>
        <path class="cls-2" d="M170.9,202.4c0-1.6.2-3.1.2-4.6,0-1.5,0-3,0-4.5v-14.4c0-2,0-3.9,0-5.7,0-1.8,0-3.5,0-5,0-1.5,0-2.8,0-3.9,0-1.1,0-1.9-.1-2.3l-5.2-.6v-2.7c-.1,0,12-3.2,12-3.2l1.8,1.1c0,1.9-.2,3.8-.2,5.8,0,1.9-.1,4.1-.2,6.6,0,2.5-.1,5.6-.2,9.3h.2c1-1.3,2.4-2.6,4.1-3.6,1.7-1,3.6-1.5,5.6-1.5s4.5.6,6.5,1.7c2,1.1,3.6,2.8,4.8,4.9,1.2,2.1,1.8,4.7,1.8,7.7s-.8,6.2-2.3,8.9c-1.5,2.6-3.7,4.7-6.5,6.3-2.8,1.5-6,2.3-9.7,2.3s-4.3-.2-6.4-.7c-2.1-.4-4.1-1.1-6-1.9ZM184.9,200.3c2.3,0,4.3-.9,5.9-2.7,1.6-1.8,2.4-4.6,2.4-8.3,0-3.5-.8-6.1-2.4-7.7-1.6-1.6-3.6-2.4-5.8-2.4s-2.3.2-3.4.7c-1.1.5-2,1.2-2.8,2.1v16.2c.8.6,1.7,1.1,2.7,1.4,1,.4,2.1.5,3.3.5Z"/>
        <path class="cls-2" d="M205.9,204.4l-.2-3,4.4-1.1c0-.2,0-.6.1-1.2,0-.6,0-1.4.1-2.4,0-1,0-2.2,0-3.6v-5.3c0-1.5,0-2.8,0-4,0-1.2-.3-2.4-.5-3.5l-4.5-1v-2.9l11.3-3,1.5,1.1-.3,5.6h.2c1.4-2.6,2.7-4.3,4.1-5.3,1.4-.9,2.8-1.4,4.2-1.4s2.3.3,3.1,1c.9.7,1.3,1.7,1.3,3s-.5,2.4-1.4,3.2c-.9.8-2.1,1.1-3.4,1.1s-2-.2-2.8-.6c-.8-.4-1.7-1-2.7-1.9l1.7.2c-.8.6-1.5,1.3-2.2,2.1-.7.9-1.3,1.9-1.9,3.1v5.8c.1,1.5.2,3,.2,4.3,0,1.3,0,2.5.1,3.4,0,1,0,1.6.1,2l6.1,1-.2,3.2h-18.8Z"/>
        <path class="cls-2" d="M250.6,205c-3.2,0-6-.7-8.4-2-2.4-1.3-4.3-3.2-5.7-5.6-1.4-2.4-2-5.1-2-8.1s.8-6.2,2.3-8.6c1.5-2.4,3.5-4.3,6-5.6,2.5-1.3,5.2-1.9,8.1-1.9s5.7.7,8,2c2.3,1.3,4.1,3.1,5.4,5.5,1.3,2.3,1.9,5,1.9,8.1s-.7,5.8-2.1,8.3c-1.4,2.5-3.3,4.4-5.6,5.8-2.4,1.4-5,2.1-7.9,2.1ZM251.3,200.9c1.3,0,2.4-.4,3.4-1.2.9-.8,1.7-2,2.2-3.6.5-1.5.8-3.4.8-5.4,0-4-.7-7.3-2.1-9.8s-3.3-3.8-5.6-3.8-3.6,1-4.9,2.9c-1.2,1.9-1.8,4.5-1.8,7.7s.4,4.8,1.1,6.8c.7,2,1.7,3.6,2.9,4.7,1.2,1.1,2.6,1.7,4.1,1.7Z"/>
        <path class="cls-2" d="M282,205c-2.1,0-3.9-.4-5.4-1.3-1.5-.9-2.7-2-3.5-3.2-.8-1.3-1.2-2.5-1.2-3.7s.5-3,1.5-4.1c1-1.1,2.7-2,4.9-2.7l11-3.4v-2.9c0-1-.3-2-1-2.9-.7-.9-1.5-1.6-2.6-2.2-1.1-.6-2.2-.8-3.5-.8s-1.5.2-1.9.6c-.4.4-.6,1.2-.7,2.4l-.3,3.8c-2.1.5-3.9.4-5.2-.2-1.4-.6-2.1-1.6-2.1-2.9s.4-1.7,1.3-2.6c.8-.9,1.9-1.7,3.2-2.5,1.3-.8,2.6-1.5,4-2s2.7-.9,3.9-1.1c3.9,0,7.1.9,9.4,2.8,2.3,1.9,3.5,4.4,3.6,7.5l-.2,10.4c0,1.2,0,2.1.1,2.9s.2,1.4.4,1.9l4.6.8v2.7l-4.1,1.8c-.8.3-1.5.6-2.2.7-.7.2-1.3.2-1.8.2-1.7,0-2.9-.9-3.5-2.7l-1.1-3.1,1.3.3c-1.5,1.7-2.9,3.1-4.4,4-1.5,1-3,1.4-4.4,1.4ZM285,199.3c.8,0,1.6-.2,2.3-.5.7-.3,1.4-.8,2-1.5v-7l-5.8,1.3c-1.1.2-1.9.6-2.4,1.2s-.7,1.3-.7,2.2.5,2.1,1.4,3c.9.9,2,1.3,3.3,1.3Z"/>
        <path class="cls-2" d="M329.8,205.2l-1.6-1v-4.5c0,0-.1,0-.1,0-1.3,2-2.6,3.4-4.1,4.1s-3,1.2-4.5,1.2c-2.5,0-4.9-.6-7-1.9s-3.8-3-5-5.2c-1.2-2.2-1.9-4.8-1.9-7.8s.5-5,1.4-7.1c.9-2.1,2.2-3.9,3.8-5.3,1.6-1.5,3.4-2.6,5.4-3.3s4-1.2,6-1.2,2.1.1,3.2.3c1.1.2,2,.5,2.7.9,0-.8,0-1.9,0-3.1,0-1.2,0-2.4,0-3.6,0-1.2,0-2.3,0-3.3,0-1,0-1.7-.1-2.2l-5.3-.8v-2.8c-.1,0,12.2-3.2,12.2-3.2l1.7,1.1c-.1,2.9-.3,5.6-.4,8.2,0,2.6-.1,5.2-.1,8.1v16.2c0,2.4,0,4.4.1,5.9s.3,2.7.4,3.5l4.6,1.1v2.8l-11,2.9ZM322.2,199c.9,0,1.9-.3,3-.8,1-.5,2-1.4,2.9-2.6v-15.4c-.8-1.1-1.6-1.9-2.7-2.4-1-.5-2.1-.7-3.1-.7-2.4,0-4.4,1-5.9,2.9-1.5,1.9-2.3,4.5-2.3,7.9s.8,6.3,2.4,8.2c1.6,1.9,3.5,2.9,5.8,2.9Z"/>
      </g>
    </g>
  </g>
</svg>