<?xml version="1.0" encoding="utf-8"?>
<!-- Generator: Adobe Illustrator 16.0.0, SVG Export Plug-In . SVG Version: 6.00 Build 0)  -->
<!DOCTYPE svg PUBLIC "-//W3C//DTD SVG 1.1//EN" "http://www.w3.org/Graphics/SVG/1.1/DTD/svg11.dtd">
<svg version="1.1" id="レイヤー_1" xmlns="http://www.w3.org/2000/svg" xmlns:xlink="http://www.w3.org/1999/xlink" x="0px"
	 y="0px" width="370px" height="250px" viewBox="0 0 370 250" enable-background="new 0 0 370 250" xml:space="preserve">
<g>
	<path fill="#212249" d="M20.507,119.456v-2.32c6.64,0,7.6-1.36,7.6-9.36V83.134c0-8-0.96-9.36-7.6-9.36v-2.32h25.28v2.32
		c-6.64,0-7.68,1.36-7.68,9.36v24.641c0,8,1.04,9.36,7.68,9.36v2.32H20.507z"/>
	<path fill="#212249" d="M76.747,91.455c7.2,0,12.4,5.12,12.4,11.92v4.4c0,8,1.04,9.36,6.32,9.36v2.32h-18.48v-2.32
		c2,0,3.12-1.36,3.12-9.36v-3.36c0-5.2-1.28-8.48-5.761-8.48c-3.2,0-7.359,2.56-7.359,7.919v3.921c0,8,0.88,9.36,6.239,9.36v2.32
		h-21.6v-2.32c5.359,0,6.319-1.36,6.319-9.36v-2.64c0-8-0.96-9.361-6.319-9.361v-2.32l14-2c0.399,0.8,0.96,2.88,1.12,4.56
		C68.907,93.375,72.267,91.455,76.747,91.455z"/>
	<path fill="#212249" d="M97.706,96.334v-2.64c4.8-1.04,10-5.76,10.48-10.96h2.72v10.08h6.96v3.52h-6.96v13.92
		c0,3.761,1.12,5.761,3.601,5.761c1.52,0,3.2-0.72,5.439-2.32l1.12,2.32c-2.56,2.399-7.12,4.56-9.84,4.56
		c-5.84,0-9.36-3.6-9.36-9.76v-14.48H97.706z"/>
	<path fill="#212249" d="M143.786,116.495c3.601,0.24,7.04-1.119,9.521-3.279l1.359,2.32c-2.8,2.959-7.68,5.279-12.16,5.279
		c-10.399,0-16.16-6.641-16.16-14.721c0-8.479,7.04-14.64,15.44-14.64c8.721,0,13.28,7.68,11.521,13.2h-17.36
		C135.306,112.815,139.066,116.174,143.786,116.495z M147.146,101.135c0.24-3.281-1.44-5.841-4.96-5.841
		c-2.881,0-4.881,2-5.681,5.841H147.146z"/>
	<path fill="#212249" d="M186.746,102.815c-4.08,0-2-5.28-6.399-5.28c-2.24,0-5.121,2.08-5.121,8.56v1.681c0,8,0.961,9.36,6.32,9.36
		v2.32h-21.439v-2.32c5.359,0,6.319-1.36,6.319-9.36v-2.64c0-8-0.96-9.361-6.319-9.361v-2.32l13.76-2
		c0.399,0.8,1.12,4.08,1.359,5.76c1.681-3.2,5.521-5.76,8.721-5.76c5.44,0,7.12,3.68,7.12,6.56
		C191.066,100.015,189.706,102.815,186.746,102.815z"/>
	<path fill="#212249" d="M214.505,99.135c1.36-2.8,0.641-4-2.32-4v-2.32h12.001v2.32c-2.801,0-4.24,1.04-5.681,4l-10.72,21.76h-2.24
		l-10.721-21.76c-1.439-3.04-2.8-4-5.359-4v-2.32h17.521v2.32c-3.36,0-3.921,1.28-2.641,4l4.96,10.56L214.505,99.135z"/>
	<path fill="#212249" d="M225.305,119.456v-2.32c5.36,0,6.32-1.36,6.32-9.36v-2.64c0-8-0.96-9.361-6.32-9.361v-2.32l15.36-2v16.32
		c0,8,0.96,9.36,6.32,9.36v2.32H225.305z"/>
	<path fill="#212249" d="M269.465,116.495c3.601,0.24,7.04-1.119,9.521-3.279l1.36,2.32c-2.801,2.959-7.681,5.279-12.16,5.279
		c-10.4,0-16.161-6.641-16.161-14.721c0-8.479,7.041-14.64,15.44-14.64c8.721,0,13.28,7.68,11.521,13.2h-17.36
		C260.985,112.815,264.745,116.174,269.465,116.495z M272.825,101.135c0.24-3.281-1.439-5.841-4.96-5.841
		c-2.88,0-4.88,2-5.681,5.841H272.825z"/>
	<path fill="#212249" d="M298.345,120.895h-1.76l-9.44-21.76c-1.36-3.28-2.64-4-5.44-4v-2.32h17.2v2.32c-3.439,0-3.92,0.96-2.56,4
		l3.68,8.64l6.48-14.96h1.92l6.801,15.76l4.08-9.44c1.279-2.96,0.8-4-2.16-4v-2.32h11.84v2.32c-2.8,0-4.48,0.72-5.76,4l-9.44,21.76
		h-1.76l-6.801-15.84L298.345,120.895z"/>
	<g>
		<path fill="#F5EE61" d="M236.145,50.003c1.074,5.42,1.324,10.877,1.359,16.366c-0.029,5.489-0.279,10.946-1.359,16.366
			c-1.079-5.419-1.329-10.877-1.358-16.366C234.821,60.88,235.071,55.423,236.145,50.003L236.145,50.003z"/>
		<path fill="#F5EE61" d="M221.972,74.551c4.157-3.64,8.758-6.585,13.494-9.359c4.768-2.719,9.619-5.231,14.853-7.006
			c-4.153,3.645-8.756,6.59-13.494,9.36C232.054,70.26,227.203,72.771,221.972,74.551L221.972,74.551z"/>
		<path fill="#F5EE61" d="M250.318,74.551c-5.23-1.78-10.082-4.292-14.853-7.006c-4.739-2.77-9.34-5.715-13.494-9.36
			c5.233,1.774,10.085,4.288,14.853,7.006C241.561,67.966,246.161,70.911,250.318,74.551L250.318,74.551z"/>
	</g>
	<g>
		<path fill="#C9CACA" d="M116,156.383c1.379,2.089,2.367,3.854,3.611,5.416c2.586,3.243,3.603,7.008,4.021,11.014
			c0.048,0.459-0.09,0.979,0.077,1.379c1.153,2.78-0.157,5.305-1.046,7.717c-1.227,3.33-3.46,6.189-6.629,7.86
			c-1.885,0.995-4.215,1.622-6.333,1.594c-4.14-0.056-8.091-1.323-11.245-4.145c-2.516-2.252-3.851-5.289-3.686-8.671
			c0.353-7.23,2.613-13.765,7.64-19.182c1.315-1.417,2.476-2.979,3.652-4.405c-5.154-2.628-11.136-4.854-17.35-5.994
			c-4.408-0.809-9.045-0.62-13.566-0.463c-3.29,0.113-6.603,0.586-9.76,1.792c-6.532,2.494-10.924,6.978-12.313,13.859
			c-0.966,4.788,2.35,9.447,6.95,9.928c1.773,0.186,3.405,0.422,5.114-0.134c1.181-0.384,1.751-0.819,1.54-2.344
			c-0.547-3.942,2.207-6.854,5.888-6.544c1.927,0.163,2.936,1.239,3.265,3.139c0.508,2.936-0.834,4.985-3.009,6.635
			c-4.971,3.769-10.54,5.063-16.415,2.857c-4.153-1.56-7.364-4.948-7.742-10.26c-0.599-8.428,3.36-14.642,10.297-18.896
			c2.944-1.806,6.414-2.796,9.716-3.951c1.081-0.378,2.388-0.13,3.591-0.137c5.07-0.024,10.143-0.128,15.21-0.029
			c4.759,0.093,9.332,1.347,13.763,2.965c2.761,1.009,5.502,2.235,7.981,3.795c2.11,1.326,4.108,1.261,6.253,0.689
			c6.134-1.636,12.353-2.034,18.67-1.602c3.324,0.228,6.671,0.1,9.998,0.291c11.149,0.646,21.941,3.159,32.609,6.326
			c5.13,1.522,10.329,2.812,15.449,4.361c2.2,0.667,4.256,1.793,6.418,2.601c4.142,1.548,8.315,3.008,12.466,4.531
			c0.861,0.315,1.667,0.779,2.517,1.128c3.658,1.504,7.339,2.959,10.985,4.494c3.026,1.273,5.935,2.893,9.043,3.902
			c7.014,2.279,13.637,1.152,19.565-3.248c2.131-1.58,4.284-3.304,5.896-5.376c2.972-3.819,4.314-8.206,2.419-12.994
			c-0.451-1.143-1.285-2.292-2.251-3.047c-5.255-4.105-10.962-4.546-16.919-1.645c-2.4,1.168-4.266,4.881-3.734,7.146
			c0.49,2.092,1.167,2.438,3.109,1.59c2.345-1.023,3.711-0.757,4.816,0.939c1.155,1.773,0.728,3.379-1.154,4.343
			c-1.99,1.018-6.146,0.244-8.051-1.363c-2.715-2.293-3.448-5.199-2.709-8.515c0.734-3.294,2.565-5.9,5.414-7.765
			c7.329-4.793,16.975-3.232,22.778,2.324c3.921,3.754,4.992,8.411,3.559,13.707c-1.255,4.639-4.057,8.164-7.426,11.417
			c-3.469,3.348-7.833,5.257-12.177,7.97c1.338,0.465,2.441,0.829,3.533,1.228c3.363,1.231,6.771,2.358,10.071,3.74
			c6.634,2.775,13.636,4.005,20.666,5.105c5.011,0.784,10.055,1.358,15.082,2.045c5.995,0.819,11.79-0.318,17.574-1.705
			c6.358-1.522,12.374-3.862,17.79-7.546c6.231-4.239,10.994-9.713,12.823-17.19c1.105-4.521,0.876-9.171,0.012-13.741
			c-1.347-7.108-5.5-12.341-11.301-16.378c-3.451-2.402-7.227-4.022-11.535-3.957c-3.854,0.059-7.566,1.048-10.913,2.795
			c-1.556,0.813-2.933,2.684-3.562,4.383c-0.854,2.314-1.546,4.794-0.989,7.454c0.483,2.314,1.683,3.887,3.742,4.761
			c1.777,0.757,3.649,1.364,5.84,0.786c-0.332-0.612-0.717-1.118-0.898-1.688c-0.736-2.313,0.287-4.146,2.546-4.673
			c2.804-0.654,5.3,0.698,5.543,3.101c0.574,5.682-3.278,8.043-7.977,7.884c-2.301-0.079-4.73-0.376-6.95-1.514
			c-1.968-1.009-3.555-2.266-4.539-4.244c-3.877-7.801-1.242-18.952,9.643-21.73c2.67-0.682,5.397-1.231,8.133-1.552
			c5.187-0.607,9.768,0.905,14.071,3.928c3.464,2.433,6.311,5.455,8.954,8.603c2.689,3.202,3.995,7.297,4.747,11.403
			c2.328,12.724-1.889,25.478-13.248,33.624c-3.939,2.825-8.051,5.173-12.489,6.989c-2.048,0.838-4.199,1.461-6.347,2.015
			c-5.626,1.45-11.303,3.128-17.148,2.581c-5.76-0.539-11.593-0.386-17.284-1.885c-3.553-0.938-7.271-1.249-10.913-1.861
			c-5.671-0.953-10.944-3.137-16.254-5.22c-2.055-0.807-4.178-1.44-6.272-2.147c-1.27-0.428-2.657-0.647-3.797-1.302
			c-3.705-2.13-7.82-3.192-11.733-4.777c-4.78-1.937-9.442-4.166-14.185-6.198c-3.645-1.562-7.324-3.042-11.007-4.51
			c-5.651-2.254-11.297-4.533-16.995-6.665c-2.313-0.865-4.762-1.363-7.143-2.052c-4.225-1.223-8.408-2.618-12.679-3.655
			c-5.11-1.242-10.29-2.194-15.442-3.258c-7.57-1.563-15.274-1.618-22.942-1.77c-4.492-0.089-9.001,0.53-13.497,0.905
			C118.511,155.578,117.55,155.979,116,156.383z M119.357,175.252c0.085-3.739-0.981-5.704-3.8-11.113
			c-0.756-1.45-1.84-2.773-2.967-3.976c-1.496-1.598-2.517-1.605-4.259-0.248c-5.049,3.929-7.945,9.186-9.119,15.383
			c-0.686,3.625,0.373,6.775,3.355,9.128c3.848,3.034,8.119,3.715,12.412,0.444C118.141,182.464,119.528,179.199,119.357,175.252z"
			/>
	</g>
</g>
</svg>
